<svg width="25" height="23" viewBox="0 0 25 23" fill="none" xmlns="http://www.w3.org/2000/svg">
<path d="M22.5 0.209229H2.5C1.125 0.209229 0.0125 1.46255 0.0125 2.99439L0 19.7054C0 21.2372 1.125 22.4905 2.5 22.4905H22.5C23.875 22.4905 25 21.2372 25 19.7054V2.99439C25 1.46255 23.875 0.209229 22.5 0.209229ZM22 6.1277L13.1625 12.2829C12.7625 12.5614 12.2375 12.5614 11.8375 12.2829L3 6.1277C2.6875 5.90489 2.5 5.52889 2.5 5.12504C2.5 4.19201 3.4125 3.63498 4.125 4.12238L12.5 9.9573L20.875 4.12238C21.5875 3.63498 22.5 4.19201 22.5 5.12504C22.5 5.52889 22.3125 5.90489 22 6.1277Z" fill="white"/>
</svg>
