<svg width="25" height="22" viewBox="0 0 25 22" fill="none" xmlns="http://www.w3.org/2000/svg">
<path d="M22.5 0.537842H2.5C1.125 0.537842 0.0125 1.70606 0.0125 3.13388L0 18.7101C0 20.1379 1.125 21.3062 2.5 21.3062H22.5C23.875 21.3062 25 20.1379 25 18.7101V3.13388C25 1.70606 23.875 0.537842 22.5 0.537842ZM22 6.05443L13.1625 11.7917C12.7625 12.0513 12.2375 12.0513 11.8375 11.7917L3 6.05443C2.6875 5.84675 2.5 5.49628 2.5 5.11985C2.5 4.25018 3.4125 3.73097 4.125 4.18528L12.5 9.62398L20.875 4.18528C21.5875 3.73097 22.5 4.25018 22.5 5.11985C22.5 5.49628 22.3125 5.84675 22 6.05443Z" fill="#00BD4C"/>
</svg>
