<svg width="163" height="163" viewBox="0 0 163 163" fill="none" xmlns="http://www.w3.org/2000/svg">
<path fill-rule="evenodd" clip-rule="evenodd" d="M81.533 162.733C126.379 162.733 162.733 126.379 162.733 81.5332C162.733 36.6877 126.379 0.333252 81.533 0.333252C36.6875 0.333252 0.333008 36.6877 0.333008 81.5332C0.333008 126.379 36.6875 162.733 81.533 162.733ZM59.2997 71.6103C68.4287 71.6103 69.933 83.4666 71.8663 81.5332C71.8663 67.9999 68.1115 56.3999 59.2997 56.3999C50.4878 56.3999 46.733 67.9999 46.733 81.5332C48.6663 83.4666 50.1706 71.6103 59.2997 71.6103ZM103.766 71.6103C112.895 71.6103 114.4 83.4666 116.333 81.5332C116.333 67.9999 112.578 56.3999 103.766 56.3999C94.9545 56.3999 91.1997 67.9999 91.1997 81.5332C93.133 83.4666 94.6373 71.6103 103.766 71.6103ZM81.533 124.639C108.878 124.639 118.144 106.667 118.266 100.867C118.266 99.4044 102.026 115.393 81.533 115.393C61.0404 115.393 42.8663 99.4044 42.8663 100.867C42.8663 106.667 54.1883 124.639 81.533 124.639Z" fill="#00BD4C"/>
</svg>
