<svg width="16" height="15" viewBox="0 0 16 15" fill="none" xmlns="http://www.w3.org/2000/svg">
<path d="M15.9219 7.75792C15.7454 8.2283 15.3081 8.53229 14.8073 8.53229H14.3998V14.3987C14.3998 14.6931 14.1609 14.932 13.8665 14.932H10.6667V11.1988C10.6667 9.7285 9.47045 8.53229 8.00011 8.53229C6.52978 8.53229 5.33357 9.7285 5.33357 11.1988V14.932H2.13371C1.83932 14.932 1.6004 14.6931 1.6004 14.3987V8.53229H1.19242C0.691639 8.53229 0.254325 8.22883 0.0777996 7.75845C-0.0987258 7.28807 0.0308684 6.77076 0.408452 6.44118L6.63697 0.542776C7.40174 -0.180925 8.59902 -0.180925 9.36325 0.542776L15.6067 6.45504C15.9683 6.77023 16.0984 7.28754 15.9219 7.75792Z" fill="#BBBBBB"/>
</svg>
