<svg width="14" height="14" viewBox="0 0 14 14" fill="none" xmlns="http://www.w3.org/2000/svg">
<path d="M11.4273 3.34267C11.4273 3.50288 11.3798 3.65951 11.2908 3.79274C11.2018 3.92597 11.0753 4.02982 10.9273 4.09114C10.7793 4.15247 10.6164 4.16853 10.4593 4.13728C10.3021 4.10603 10.1578 4.02888 10.0445 3.91559C9.93122 3.8023 9.85407 3.65796 9.82282 3.50082C9.79157 3.34368 9.80763 3.1808 9.86896 3.03278C9.93028 2.88477 10.0341 2.75826 10.1674 2.66927C10.3006 2.58028 10.4572 2.5328 10.6174 2.53283C10.8322 2.53288 11.0382 2.61821 11.19 2.77008C11.3419 2.92194 11.4272 3.1279 11.4273 3.34267ZM14 7L13.9998 7.0102L13.9538 9.94703C13.9419 11.006 13.5159 12.0181 12.7671 12.767C12.0183 13.5158 11.0061 13.9417 9.94717 13.9537L7 14L6.9898 13.9998L4.05297 13.9539C2.99402 13.942 1.98182 13.516 1.23297 12.7672C0.484116 12.0184 0.0581046 11.0062 0.0461 9.94727L0 7L0.000200017 6.9898L0.0460667 4.05287C0.0581052 2.99393 0.484127 1.98177 1.23297 1.23297C1.98182 0.484157 2.994 0.0581857 4.05293 0.0462001L7 0L7.0102 0.000200017L9.94703 0.0460667C11.0059 0.0580533 12.0181 0.484032 12.7669 1.23284C13.5157 1.98166 13.9417 2.99382 13.9537 4.05273L14 7ZM12.6963 7L12.6505 4.07333C12.6423 3.35346 12.3528 2.66536 11.8437 2.1563C11.3346 1.64723 10.6465 1.35764 9.92667 1.3495L7 1.3038L4.07333 1.3495C3.35346 1.35766 2.66537 1.64725 2.1563 2.15631C1.64723 2.66537 1.35763 3.35346 1.34947 4.07333L1.30377 7L1.34947 9.92667C1.35761 10.6466 1.6472 11.3347 2.15627 11.8437C2.66534 12.3528 3.35345 12.6424 4.07333 12.6505L7 12.6962L9.92667 12.6505C10.6466 12.6424 11.3347 12.3528 11.8437 11.8437C12.3528 11.3347 12.6424 10.6466 12.6505 9.92667L12.6963 7ZM10.5947 7C10.5947 7.71097 10.3838 8.40597 9.98885 8.99711C9.59386 9.58826 9.03244 10.049 8.37559 10.3211C7.71874 10.5931 6.99597 10.6643 6.29866 10.5256C5.60136 10.3869 4.96084 10.0446 4.45812 9.54183C3.95539 9.03909 3.61303 8.39858 3.47433 7.70127C3.33564 7.00397 3.40683 6.28119 3.67891 5.62435C3.95099 4.9675 4.41173 4.40609 5.00288 4.0111C5.59403 3.61611 6.28903 3.40529 7 3.4053C7.95304 3.40638 8.86674 3.78545 9.54064 4.45935C10.2145 5.13326 10.5936 6.04696 10.5947 7ZM9.2911 7C9.2911 6.54686 9.15673 6.10389 8.90497 5.72711C8.65322 5.35034 8.29539 5.05668 7.87674 4.88327C7.45809 4.70986 6.99741 4.66449 6.55298 4.75289C6.10854 4.8413 5.7003 5.05951 5.37988 5.37994C5.05946 5.70036 4.84125 6.1086 4.75285 6.55304C4.66445 6.99748 4.70983 7.45815 4.88324 7.8768C5.05666 8.29545 5.35033 8.65328 5.72711 8.90502C6.10388 9.15677 6.54686 9.29114 7 9.29113C7.60742 9.29043 8.18977 9.04881 8.61927 8.61929C9.04878 8.18977 9.29038 7.60742 9.29107 7H9.2911Z" fill="#BBBBBB"/>
</svg>
