<svg width="16" height="16" viewBox="0 0 16 16" fill="none" xmlns="http://www.w3.org/2000/svg">
<path d="M10.88 10.774C10.3283 11.3522 9.61565 11.7515 8.83445 11.9201C8.05324 12.0888 7.23939 12.0191 6.49823 11.72C5.75708 11.421 5.12275 10.9064 4.67735 10.2428C4.23195 9.57919 3.99599 8.79718 4 7.99798C4 6.93712 4.42143 5.9197 5.17158 5.16956C5.92172 4.41941 6.93914 3.99799 8 3.99799C9.06087 3.99799 10.0783 4.41941 10.8284 5.16956C11.5786 5.9197 12 6.93712 12 7.99798V9.19798C12 9.51624 12.1264 9.82147 12.3515 10.0465C12.5765 10.2716 12.8817 10.398 13.2 10.398C13.5183 10.398 13.8235 10.2716 14.0485 10.0465C14.2736 9.82147 14.4 9.51624 14.4 9.19798V7.99798C14.3986 6.6253 13.9558 5.28945 13.1371 4.18763C12.3185 3.0858 11.1672 2.2764 9.85333 1.87889C8.53946 1.48139 7.1326 1.51684 5.84043 1.98004C4.54825 2.44323 3.43924 3.3096 2.6771 4.45127C1.91496 5.59294 1.54008 6.9494 1.6078 8.32041C1.67552 9.69142 2.18225 11.0043 3.05319 12.0653C3.92413 13.1263 5.11313 13.8792 6.44466 14.2128C7.77619 14.5464 9.1797 14.443 10.448 13.918C10.5461 13.8682 10.6534 13.8392 10.7632 13.8327C10.873 13.8263 10.983 13.8425 11.0862 13.8805C11.1894 13.9185 11.2837 13.9773 11.3632 14.0534C11.4427 14.1294 11.5056 14.221 11.5481 14.3225C11.5906 14.424 11.6116 14.5331 11.61 14.6431C11.6084 14.7531 11.5841 14.8616 11.5387 14.9617C11.4933 15.0619 11.4277 15.1517 11.346 15.2253C11.2643 15.299 11.1683 15.3551 11.064 15.39C9.47856 16.0473 7.72375 16.1774 6.05873 15.7609C4.39372 15.3444 2.90678 14.4035 1.81754 13.0771C0.728302 11.7507 0.0945059 10.1092 0.00976164 8.39501C-0.0749827 6.68079 0.393819 4.98476 1.34693 3.55741C2.30003 2.13007 3.68691 1.04709 5.30273 0.468418C6.91855 -0.110252 8.67763 -0.153928 10.3202 0.343841C11.9627 0.841609 13.4016 1.85443 14.4244 3.23272C15.4472 4.611 15.9996 6.28167 16 7.99798V9.19798C16.0018 9.79815 15.8107 10.383 15.4549 10.8663C15.0991 11.3497 14.5974 11.7059 14.0237 11.8824C13.4501 12.059 12.835 12.0466 12.269 11.847C11.7029 11.6474 11.216 11.2713 10.88 10.774ZM8 10.398C8.63652 10.398 9.24697 10.1451 9.69706 9.69504C10.1471 9.24495 10.4 8.6345 10.4 7.99798C10.4 7.36147 10.1471 6.75102 9.69706 6.30093C9.24697 5.85084 8.63652 5.59799 8 5.59799C7.36348 5.59799 6.75303 5.85084 6.30295 6.30093C5.85286 6.75102 5.6 7.36147 5.6 7.99798C5.6 8.6345 5.85286 9.24495 6.30295 9.69504C6.75303 10.1451 7.36348 10.398 8 10.398Z" fill="#BBBBBB"/>
</svg>
